<?xml version="1.0" standalone="no"?>
<!DOCTYPE svg PUBLIC "-//W3C//DTD SVG 20010904//EN"
 "http://www.w3.org/TR/2001/REC-SVG-20010904/DTD/svg10.dtd">
<svg version="1.0" xmlns="http://www.w3.org/2000/svg"
 width="1024.000000pt" height="1024.000000pt" viewBox="0 0 1024.000000 1024.000000"
 preserveAspectRatio="xMidYMid meet">
<metadata>
Created by potrace 1.16, written by Peter Selinger 2001-2019
</metadata>
<g transform="translate(0.000000,1024.000000) scale(0.100000,-0.100000)"
fill="#000000" stroke="none">
<path d="M4800 9120 l0 -160 -320 0 -320 0 0 -160 0 -160 -320 0 -320 0 0
-160 0 -160 -320 0 -320 0 0 -160 0 -160 -160 0 -160 0 0 -160 0 -160 -160 0
-160 0 0 -1760 0 -1760 -160 0 -160 0 0 -320 0 -320 160 0 160 0 0 -320 0
-320 -160 0 -160 0 0 -320 0 -320 -160 0 -160 0 0 -160 0 -160 -160 0 -160 0
0 -320 0 -320 320 0 320 0 0 160 0 160 160 0 160 0 0 160 0 160 160 0 160 0 0
160 0 160 160 0 160 0 0 -320 0 -320 320 0 320 0 0 -320 0 -320 320 0 320 0 0
160 0 160 160 0 160 0 0 160 0 160 960 0 960 0 0 -320 0 -320 320 0 320 0 0
160 0 160 160 0 160 0 0 160 0 160 320 0 320 0 0 800 0 800 160 0 160 0 0 160
0 160 160 0 160 0 0 160 0 160 160 0 160 0 0 160 0 160 -160 0 -160 0 0 1600
0 1600 -160 0 -160 0 0 320 0 320 -160 0 -160 0 0 160 0 160 -160 0 -160 0 0
160 0 160 -320 0 -320 0 0 160 0 160 -480 0 -480 0 0 160 0 160 -640 0 -640 0
0 -160z m2240 -640 l0 -160 160 0 160 0 0 -160 0 -160 160 0 160 0 0 -160 0
-160 160 0 160 0 0 -160 0 -160 -160 0 -160 0 0 160 0 160 -1600 0 -1600 0 0
160 0 160 160 0 160 0 0 160 0 160 160 0 160 0 0 160 0 160 960 0 960 0 0
-160z m960 -1600 l0 -160 160 0 160 0 0 -1440 0 -1440 -160 0 -160 0 0 -160 0
-160 -2400 0 -2400 0 0 160 0 160 -160 0 -160 0 0 160 0 160 960 0 960 0 0
480 0 480 -320 0 -320 0 0 160 0 160 -160 0 -160 0 0 640 0 640 160 0 160 0 0
160 0 160 1920 0 1920 0 0 -160z m-2560 -3840 l0 -160 640 0 640 0 0 160 0
160 320 0 320 0 0 -160 0 -160 -320 0 -320 0 0 -160 0 -160 -640 0 -640 0 0
160 0 160 -800 0 -800 0 0 160 0 160 800 0 800 0 0 -160z"/>
<path d="M4480 6240 l0 -480 160 0 160 0 0 320 0 319 320 1 320 0 0 -320 0
-320 160 0 160 0 0 320 0 320 800 0 800 0 0 -320 0 -320 160 0 160 0 0 320 0
320 160 0 160 0 0 160 0 160 -1760 0 -1760 0 0 -480z"/>
<path d="M6400 5120 l0 -320 160 0 160 0 0 320 0 320 -160 0 -160 0 0 -320z"/>
</g>
</svg>
